<?xml version="1.0" encoding="UTF-8"?>
<svg id="Camada_1" data-name="Camada 1" xmlns="http://www.w3.org/2000/svg" viewBox="0 0 783.38 750.9">
  <defs>
    <style>
      .cls-1 {
        letter-spacing: 0em;
      }

      .cls-2 {
        fill: #263571;
      }

      .cls-3 {
        letter-spacing: 0em;
      }

      .cls-4 {
        fill: #161616;
        font-family: Bahnschrift, Bahnschrift;
        font-size: 106.09px;
        font-variation-settings: 'wght' 400, 'wdth' 100;
      }

      .cls-5 {
        letter-spacing: 0em;
      }
    </style>
  </defs>
  <g>
    <path class="cls-2" d="M398.78,420.94v159.47h74.83v-161.39c-9.75,4.33-23.99,7.06-39.88,7.06-13.39,0-25.61-1.94-34.95-5.14Z"/>
    <path class="cls-2" d="M252.92,408.36v172.05h79.17v-158.78c-8.25,2.5-17.53,3.91-27.34,3.91-21.64,0-40.68-6.83-51.83-17.18Z"/>
    <path class="cls-2" d="M126.08,323.79c47.58,46.74,161.67,79.67,294.88,79.67,154.16,0,265.29-71.9,301.74-115.92-74.89,32.76-184.59,65.35-324.02,67.2-105.63,1.4-199.56-11.97-272.6-30.95Z"/>
    <rect class="cls-2" x="252.92" y="277.32" width="79.17" height="56.3"/>
    <path class="cls-2" d="M247.96,28.93c-20.87-1.18-128.42-6.3-160.69-6.08,315.76,37.09,454.94,77.27,454.94,130.76s-143.67,92.23-471.82,93.47c76.69,6.77,156.54,10.48,228.28,10.48,239.74,0,390.71-39.52,390.71-98.3S516.47,44.09,247.96,28.93Z"/>
  </g>
  <text class="cls-4" transform="translate(28.22 704.85)"><tspan class="cls-5" x="0" y="0">P</tspan><tspan x="65.01" y="0">RIN</tspan><tspan class="cls-5" x="237.67" y="0">C</tspan><tspan class="cls-1" x="302.27" y="0">E TO</tspan><tspan class="cls-3" x="513.73" y="0">W</tspan><tspan x="604.08" y="0">ER</tspan></text>
</svg>